<svg width="1440" height="654" viewBox="0 0 1440 654" fill="none" xmlns="http://www.w3.org/2000/svg">
    <path d="M-1.68796 25.7124L-3 26.1931V27.5904V124.59V126.59H-1H1441H1443V124.59V17.0903V15.4113L1441.35 15.1205C1426.22 12.4605 1391.71 7.09038 1375.5 7.09038C1370.2 7.09038 1361.84 8.8509 1352.22 11.3746C1342.53 13.9173 1331.32 17.3039 1320.23 20.6769L1318.02 21.3493C1307.67 24.4987 1297.53 27.5873 1288.84 29.9413C1279.46 32.4867 1272.06 34.0903 1268 34.0903C1263.89 34.0903 1255.1 32.4657 1243.23 29.9162C1236.85 28.5449 1229.69 26.9315 1222.01 25.2029C1215.5 23.7379 1208.63 22.1902 1201.55 20.6369C1170.85 13.8977 1136.51 7.09038 1114 7.09038C1091.43 7.09038 1064.91 14.1794 1039.6 21.035L1038.37 21.369C1013.33 28.1557 989.643 34.5734 971.553 34.091C955.375 33.6596 941.696 28.4844 926.368 22.6855C924.323 21.9118 922.248 21.1269 920.135 20.3408C902.231 13.682 881.847 7.09038 853.5 7.09038C825.323 7.09038 804.686 10.3645 783.57 14.3119C780.582 14.8705 777.586 15.4423 774.558 16.0201C756.203 19.5227 736.686 23.247 710.819 25.5986C670.407 29.2724 631.893 28.0262 593.975 26.7992C575.223 26.1924 556.618 25.5904 538 25.5904C510.184 25.5904 479.079 20.9926 452.467 16.3699C445.82 15.2152 439.46 14.0602 433.505 12.9762L432.516 12.7962C426.937 11.7806 421.721 10.831 416.982 10.0103C407.008 8.28314 398.955 7.09038 394 7.09038C390.006 7.09038 380.586 7.8809 367.717 8.96073C364.928 9.19485 361.976 9.44256 358.882 9.69876C341.435 11.1435 319.305 12.8757 295.777 14.0303C248.61 16.3448 196.187 16.3127 164.555 7.16904C138.524 -0.355586 105.336 1.24338 74.6071 6.19081C43.8277 11.1463 15.2539 19.506 -1.68796 25.7124Z"
          fill="#EA92B6" stroke="black" stroke-width="4"/>
    <path d="M1 124.59H1441V653.59H1V124.59Z" fill="#EA92B6"/>
    <path d="M1221.78 164.032L1221.78 164.032L1221.65 158.813C1221.64 158.808 1221.64 158.799 1221.62 158.787L1216.97 155.92C1216.97 155.92 1216.97 155.92 1216.97 155.919C1215.46 154.993 1215.8 152.853 1217.36 152.299L1217.37 152.296L1217.38 152.292L1222.64 150.554L1222.66 150.549L1222.67 150.543C1222.68 150.542 1222.68 150.541 1222.68 150.541L1222.68 150.539L1224.14 145.48C1224.6 143.832 1226.76 143.514 1227.78 144.773C1227.78 144.774 1227.78 144.774 1227.78 144.775L1231.15 148.92C1231.18 148.95 1231.22 148.968 1231.26 148.967L1236.82 148.705L1236.82 148.704C1238.42 148.637 1239.69 150.429 1238.62 151.895M1221.78 164.032L1234.65 155.617L1235.42 156.176L1235.44 156.188L1235.46 156.202C1235.46 156.198 1235.46 156.192 1235.46 156.186C1235.46 156.184 1235.46 156.183 1235.46 156.181C1235.45 156.175 1235.45 156.169 1235.45 156.164L1235.45 156.172L1235.46 156.181L1235.46 156.197M1221.78 164.032L1221.78 164.038C1221.83 165.763 1223.86 166.551 1225.14 165.563L1229.48 162.278L1229.48 162.276C1229.49 162.271 1229.5 162.263 1229.53 162.258C1229.55 162.254 1229.58 162.255 1229.6 162.259L1234.92 163.757L1234.92 163.757L1234.93 163.758C1236.45 164.176 1238.12 162.77 1237.44 161.081C1237.43 161.081 1237.43 161.081 1237.43 161.081L1235.46 156.197M1221.78 164.032L1235.46 156.208C1235.45 156.213 1235.45 156.211 1235.46 156.205L1235.46 156.197M1238.62 151.895L1237.81 151.304L1238.62 151.895L1238.62 151.895ZM1238.62 151.895L1235.46 156.197"
          fill="#FEDB63" stroke="black" stroke-width="2"/>
    <path d="M1320.04 205.241C1320.04 205.242 1320.04 205.243 1320.04 205.243C1319.7 205.73 1319.63 206.316 1319.84 206.818L1319.84 206.826L1319.84 206.834L1325.02 220.066L1320.04 205.241ZM1320.04 205.241L1328.31 193.6L1320.04 205.241ZM1273.76 204.027L1285.96 211.784L1328.31 193.6C1330.15 191.014 1328.09 187.566 1324.99 187.701L1324.98 187.701L1310.42 188.409C1309.81 188.43 1309.24 188.169 1308.84 187.697L1299.98 176.471C1299.98 176.47 1299.98 176.469 1299.98 176.469C1298.07 174.027 1294.07 174.751 1293.26 177.767C1293.26 177.769 1293.26 177.77 1293.26 177.772L1289.43 191.434L1289.43 191.437C1289.28 191.997 1288.86 192.435 1288.3 192.602L1288.28 192.608L1288.27 192.614L1274.5 197.306L1274.48 197.31L1274.47 197.314C1271.6 198.366 1271.06 202.319 1273.76 204.026C1273.76 204.027 1273.76 204.027 1273.76 204.027Z"
          fill="#FEDB63" stroke="black" stroke-width="2"/>
    <path d="M1183.37 300.765L1183.37 300.763C1188.35 288.172 1195.07 281.735 1198.64 278.318C1199.03 277.945 1199.38 277.607 1199.69 277.302C1200.03 276.971 1200.29 276.501 1200.48 276.038C1200.68 275.554 1200.84 274.992 1200.93 274.41C1201.09 273.311 1201.04 271.867 1200.17 270.842C1199.46 269.97 1198.71 269.128 1197.89 268.318L1197.89 268.318L1197.88 268.313C1192.44 263.065 1189.07 257.394 1186.75 252.472C1185.59 250.009 1184.69 247.737 1183.93 245.787L1183.86 245.622C1183.14 243.77 1182.5 242.153 1181.86 241.013L1181.86 241.012C1181.18 239.792 1180.06 239.055 1178.81 239.003C1177.56 238.951 1176.37 239.592 1175.57 240.753L1175.57 240.753L1175.56 240.763C1174.63 242.138 1173.94 243.716 1173.4 245.251C1169.42 256.612 1163.65 262.686 1159.69 266.707C1159.56 266.838 1159.43 266.968 1159.3 267.096C1158.46 267.946 1157.69 268.726 1157.06 269.443C1156.33 270.262 1155.71 271.073 1155.35 271.905C1154.97 272.772 1154.87 273.683 1155.19 274.63C1155.51 275.535 1156.18 276.36 1157.11 277.169C1162.79 282.085 1166.63 288.252 1169.32 293.728C1170.66 296.463 1171.71 299.015 1172.56 301.146C1172.71 301.504 1172.85 301.852 1172.98 302.19C1173.63 303.824 1174.17 305.193 1174.64 306.074C1175.9 308.509 1178.98 308.598 1180.57 306.545C1181.73 305.065 1182.4 303.303 1183.01 301.707C1183.13 301.385 1183.25 301.07 1183.37 300.765Z"
          fill="#FF8717" stroke="black" stroke-width="2"/>
    <path d="M211.616 76.1607L211.615 76.1545C211.532 73.4638 208.344 72.0484 206.242 73.7219L196.943 80.9522L196.94 80.9542C196.607 81.2148 196.143 81.3032 195.72 81.1909L184.291 77.8928L184.291 77.8928L184.286 77.8912C181.719 77.1659 179.251 79.5853 180.267 82.163C180.267 82.1631 180.267 82.1632 180.267 82.1633L184.506 92.9449L184.509 92.9531L184.513 92.9613C184.655 93.3056 184.609 93.7154 184.365 94.0637C184.364 94.0644 184.364 94.065 184.363 94.0656L177.596 103.55C175.989 105.799 177.805 108.767 180.472 108.651L180.478 108.651L192.391 108.074C192.836 108.06 193.249 108.247 193.539 108.588L200.782 117.732C200.782 117.732 200.783 117.733 200.783 117.734C202.435 119.834 205.89 119.223 206.601 116.61C206.601 116.609 206.602 116.607 206.602 116.605L209.729 105.475L209.73 105.473C209.84 105.076 210.133 104.768 210.531 104.65L210.549 104.644L210.567 104.638L221.834 100.815L221.844 100.811L221.855 100.808C224.343 99.9007 224.823 96.4827 222.472 95.0061C222.472 95.0058 222.471 95.0055 222.471 95.0052L212.497 88.6865C212.125 88.4385 211.917 88.0686 211.9 87.6778L211.616 76.1607Z"
          fill="#5AC4EC" stroke="black" stroke-width="2"/>
</svg>
