<svg width="1440" height="102" viewBox="0 0 1440 102" fill="none" xmlns="http://www.w3.org/2000/svg">
<path d="M1445 50.826V50.0673L1444.5 49.4995L1409.2 9.67342L1407.7 7.98472L1406.2 9.67342L1372.4 47.8108L1338.6 9.67343L1337.1 7.98471L1335.61 9.67342L1301.81 47.8108L1268 9.67342L1266.51 7.98452L1265.01 9.6736L1231.22 47.8104L1197.42 9.6736L1195.93 7.98452L1194.43 9.67342L1160.63 47.8106L1126.84 9.6736L1125.34 7.98452L1123.84 9.67342L1090.04 47.8106L1056.25 9.6736L1054.75 7.98452L1053.25 9.67343L1019.45 47.8106L985.658 9.6736L984.161 7.98433L982.664 9.6736L948.871 47.8104L915.077 9.6736L913.581 7.98452L912.084 9.67343L878.282 47.8106L844.489 9.6736L842.992 7.98433L841.495 9.6736L807.701 47.8104L773.908 9.6736L772.411 7.98413L770.914 9.67377L737.129 47.8104L703.327 9.67343L701.83 7.98452L700.334 9.6736L666.54 47.8104L632.747 9.6736L631.25 7.98433L629.753 9.6736L595.959 47.8106L562.158 9.67342L560.661 7.98452L559.164 9.6736L525.371 47.8104L491.577 9.6736L490.081 7.98433L488.584 9.6736L454.79 47.8106L420.988 9.67343L419.492 7.98452L417.995 9.6736L384.201 47.8104L350.408 9.6736L348.911 7.98433L347.414 9.6736L313.621 47.8106L279.819 9.67343L278.322 7.98433L276.825 9.67377L243.04 47.8104L209.239 9.67343L207.742 7.98452L206.245 9.6736L172.452 47.8104L138.658 9.6736L137.161 7.98433L135.664 9.6736L101.871 47.8104L68.0775 9.6736L66.5806 7.98433L65.0837 9.6736L31.2903 47.8104L-2.50312 9.6736L-6 5.72727V11V98V100H-4H1443H1445V98V50.826Z" fill="#FEDB63" stroke="black" stroke-width="4"/>
</svg>
