<svg width="1440" height="129" viewBox="0 0 1440 129" fill="none" xmlns="http://www.w3.org/2000/svg">
<path d="M-1.68796 25.7124L-3 26.1931V27.5904V124.59V126.59H-1H1441H1443V124.59V17.0903V15.4113L1441.35 15.1205C1426.22 12.4605 1391.71 7.09038 1375.5 7.09038C1370.2 7.09038 1361.84 8.8509 1352.22 11.3746C1342.53 13.9173 1331.32 17.3039 1320.23 20.6769L1318.02 21.3493C1307.67 24.4987 1297.53 27.5873 1288.84 29.9413C1279.46 32.4867 1272.06 34.0903 1268 34.0903C1263.89 34.0903 1255.1 32.4657 1243.23 29.9162C1236.85 28.5449 1229.69 26.9315 1222.01 25.2029C1215.5 23.7379 1208.63 22.1902 1201.55 20.6369C1170.85 13.8977 1136.51 7.09038 1114 7.09038C1091.43 7.09038 1064.91 14.1794 1039.6 21.035L1038.37 21.369C1013.33 28.1557 989.643 34.5734 971.553 34.091C955.375 33.6596 941.696 28.4844 926.368 22.6855C924.323 21.9118 922.248 21.1269 920.135 20.3408C902.231 13.682 881.847 7.09038 853.5 7.09038C825.323 7.09038 804.686 10.3645 783.57 14.3119C780.582 14.8705 777.586 15.4423 774.558 16.0201C756.203 19.5227 736.686 23.247 710.819 25.5986C670.407 29.2724 631.893 28.0262 593.975 26.7992C575.223 26.1924 556.618 25.5904 538 25.5904C510.184 25.5904 479.079 20.9926 452.467 16.3699C445.82 15.2152 439.46 14.0602 433.505 12.9762L432.516 12.7962C426.937 11.7806 421.721 10.831 416.982 10.0103C407.008 8.28314 398.955 7.09038 394 7.09038C390.006 7.09038 380.586 7.8809 367.717 8.96073C364.928 9.19485 361.976 9.44256 358.882 9.69876C341.435 11.1435 319.305 12.8757 295.777 14.0303C248.61 16.3448 196.187 16.3127 164.555 7.16904C138.524 -0.355586 105.336 1.24338 74.6071 6.19081C43.8277 11.1463 15.2539 19.506 -1.68796 25.7124Z" fill="#5AC4EC" stroke="black" stroke-width="4"/>
</svg>
